. 
  
http://www.torrenting.com/        :     Greatest Movie Tracker on The Net!!!
 
http://www.Torrenting.com          :     Once & For all ;)


               www . Torrenting . Com 

(((((((((((((= Enjoy No RAR releases =))))))))))))))))))))


...................................NFO:....................................

. 
                          ______  _   _  _____ ______  _____  _____ 
                          | ___ \| | | ||  _  || ___ \|  _  |/  ___|
                          | |_/ /| |_| || | | || |_/ /| | | |\ `--. 
                          |  __/ |  _  || | | || ___ \| | | | `--. \
                          | |    | | | |\ \_/ /| |_/ /\ \_/ //\__/ /
                          \_|    \_| |_/ \___/ \____/  \___/ \____/ 
 
                              Proudly presents
   
                Nil.by.Mouth.1997.iNTERNAL.DVDRip.XviD-PHOBOS             
                                                                          
      Release Date .....: 23/Dec/2003                                     
      DVD RLS Date .....: 25/Aug/2011                                     
      Runtime ..........: 2:08:40                                         
      Language .........: English                                         
      Subs .............: English                                         
      URL ..............: http://www.imdb.com/title/tt0119792/            
      File Size ........: CD1: 699MB / 50x15MB CD2: 701MB / 50x15MB       
                                                                          
      Summary   
                                                                          
      The family of Raymond, his wife Val and her brother Billy live in   
      working-class London district. Also in their family is Val and      
      Billy's mother Janet and grandmother Kath. Billy is a drug addict   
      and Raymond kicks him out of the house, making him live on his own. 
      Raymond is generally a rough and even violent person, and that      
      leads to problems in the life of the family.                        
                                                                          
     Tech Info  
                                                                          
      CD1:                                                                
      Video                                                               
      ID                               : 0                                
      Format                           : MPEG-4 Visual                    
      Format profile                   : Advanced Simple@L5               
      Format settings, BVOP            : No                               
      Format settings, QPel            : No                               
      Format settings, GMC             : No warppoints                    
      Format settings, Matrix          : Default (H.263)                  
      Codec ID                         : XVID                             
      Codec ID/Hint                    : XviD                             
      Duration                         : 1h 0mn                           
      Bit rate                         : 1 461 Kbps                       
      Width                            : 640 pixels                       
      Height                           : 368 pixels                       
      Display aspect ratio             : 16:9                             
      Frame rate                       : 23.976 fps                       
      Color space                      : YUV                              
      Chroma subsampling               : 4:2:0                            
      Bit depth                        : 8 bits                           
      Scan type                        : Progressive                      
      Compression mode                 : Lossy                            
      Bits/(Pixel*Frame)               : 0.259                            
      Stream size                      : 634 MiB (91%)                    
      Writing library                  : XviD 1.2.1 (UTC 2008-12-04)      
                                                                          
      Audio                                                               
      ID                               : 1                                
      Format                           : MPEG Audio                       
      Format version                   : Version 1                        
      Format profile                   : Layer 3                          
      Mode                             : Joint stereo                     
      Mode extension                   : MS Stereo                        
      Codec ID                         : 55                               
      Codec ID/Hint                    : MP3                              
      Duration                         : 1h 0mn                           
      Bit rate mode                    : Variable                         
      Bit rate                         : 134 Kbps                         
      Minimum bit rate                 : 32.0 Kbps                        
      Channel(s)                       : 2 channels                       
      Sampling rate                    : 48.0 KHz                         
      Compression mode                 : Lossy                            
      Stream size                      : 59.6 MiB (9%)                    
      Alignment                        : Aligned on interleaves           
      Interleave, duration             : 24 ms (0.58 video frame)         
      Interleave, preload duration     : 389 ms                           
      Writing library                  : LAME3.98r                        
                                                                          
      CD2:                                                                
      Video                                                               
      ID                               : 0                                
      Format                           : MPEG-4 Visual                    
      Format profile                   : Advanced Simple@L5               
      Format settings, BVOP            : No                               
      Format settings, QPel            : No                               
      Format settings, GMC             : No warppoints                    
      Format settings, Matrix          : Default (H.263)                  
      Codec ID                         : XVID                             
      Codec ID/Hint                    : XviD                             
      Duration                         : 1h 7mn                           
      Bit rate                         : 1 298 Kbps                       
      Width                            : 640 pixels                       
      Height                           : 368 pixels                       
      Display aspect ratio             : 16:9                             
      Frame rate                       : 23.976 fps                       
      Color space                      : YUV                              
      Chroma subsampling               : 4:2:0                            
      Bit depth                        : 8 bits                           
      Scan type                        : Progressive                      
      Compression mode                 : Lossy                            
      Bits/(Pixel*Frame)               : 0.230                            
      Stream size                      : 631 MiB (90%)                    
      Writing library                  : XviD 1.2.1 (UTC 2008-12-04)      
                                                                          
      Audio                                                               
      ID                               : 1                                
      Format                           : MPEG Audio                       
      Format version                   : Version 1                        
      Format profile                   : Layer 3                          
      Mode                             : Joint stereo                     
      Codec ID                         : 55                               
      Codec ID/Hint                    : MP3                              
      Duration                         : 1h 7mn                           
      Bit rate mode                    : Variable                         
      Bit rate                         : 134 Kbps                         
      Channel(s)                       : 2 channels                       
      Sampling rate                    : 48.0 KHz                         
      Compression mode                 : Lossy                            
      Stream size                      : 63.8 MiB (9%)                    
      Alignment                        : Aligned on interleaves           
      Interleave, duration             : 24 ms (0.58 video frame)         
      Interleave, preload duration     : 535 ms                           
      Writing library                  : LAME3.98r                        
                                                                          
      Group Info   
                                                                          
      Our mission is to provide the scene with decent quality rips of     
      Movie classics.                                                     
      Greets fly out to GERUDO and everyone that helped us, you know who  
      you are guys.                                                       
      Looking for decent affil sites (no ovh plz) and rippers/cappers.    
      Ask around for us or write to deimostv@hush.ai